<svg width="24" height="24" viewBox="0 0 24 24" fill="none" xmlns="http://www.w3.org/2000/svg">
<rect x="8.77783" y="9.21191" width="6.44458" height="6.44458" rx="3.22229" stroke="#F8F9FA" stroke-width="1.5"/>
<path d="M6.60998 4.86947L6.61039 4.86924L8.33953 3.87974L8.33958 3.87983L8.35049 3.87334C8.76872 3.62452 9.33192 3.7631 9.59935 4.20866L9.70515 4.39139C9.70544 4.39189 9.70572 4.39239 9.70601 4.39289C10.2358 5.31622 11.0392 5.9453 11.9963 5.9453C12.9527 5.9453 13.7584 5.31691 14.2931 4.3945L14.2932 4.39417L14.4006 4.20868C14.6681 3.76311 15.2313 3.62452 15.6495 3.87334L15.6495 3.87343L15.6605 3.87974L17.3896 4.86924L17.39 4.86947C17.9369 5.18196 18.1252 5.89014 17.8125 6.43157C17.278 7.35413 17.1343 8.36527 17.612 9.19422C18.0898 10.0233 19.0366 10.4056 20.101 10.4056C20.7288 10.4056 21.25 10.9219 21.25 11.5546V13.3137C21.25 13.9416 20.7336 14.4628 20.101 14.4628C19.0366 14.4628 18.0898 14.8451 17.612 15.6742C17.1346 16.5026 17.2778 17.513 17.8115 18.4351C18.1267 18.9886 17.9355 19.6872 17.39 19.9989L17.3896 19.9991L15.6605 20.9886L15.6604 20.9885L15.6495 20.995C15.2313 21.2438 14.6681 21.1053 14.4007 20.6598L14.2948 20.477C14.2946 20.4765 14.2943 20.476 14.294 20.4755C13.7642 19.5522 12.9608 18.9231 12.0037 18.9231C11.0473 18.9231 10.2416 19.5515 9.70694 20.4739L9.70675 20.4742L9.59935 20.6597C9.33192 21.1053 8.76872 21.2438 8.35049 20.995L8.35054 20.9949L8.33953 20.9886L6.61039 19.9991L6.60998 19.9989C6.06316 19.6864 5.87485 18.9783 6.18746 18.4369C6.72201 17.5143 6.86567 16.5031 6.38795 15.6742C5.9102 14.8451 4.96339 14.4628 3.89905 14.4628C3.26635 14.4628 2.75 13.9416 2.75 13.3137V11.5546C2.75 10.9268 3.26635 10.4056 3.89905 10.4056C4.96339 10.4056 5.9102 10.0233 6.38795 9.19422C6.86577 8.36506 6.72195 7.35364 6.18711 6.4309L5.5383 6.80696L6.18763 6.43179C5.87479 5.89033 6.06307 5.182 6.60998 4.86947Z" stroke="#F8F9FA" stroke-width="1.5" stroke-miterlimit="10" stroke-linecap="round" stroke-linejoin="round"/>
</svg>
